<?xml version="1.0" encoding="UTF-8"?>
<svg width="41px" height="41px" viewBox="0 0 41 41" version="1.1" xmlns="http://www.w3.org/2000/svg" xmlns:xlink="http://www.w3.org/1999/xlink">
    <!-- Generator: Sketch 46.2 (44496) - http://www.bohemiancoding.com/sketch -->
    <title>contract law</title>
    <desc>Created with Sketch.</desc>
    <defs></defs>
    <g id="Contact-form-&amp;-Sign-up" stroke="none" stroke-width="1" fill="none" fill-rule="evenodd">
        <g id="FAS-1200-submit-opp---Legal-services" transform="translate(-860.000000, -741.000000)" fill="#00529D">
            <g id="Group-5" transform="translate(60.000000, 591.000000)">
                <g id="contract-law" transform="translate(800.000000, 150.000000)">
                    <path d="M5.59966933,39.2059607 L26.984062,39.2059607 C25.8631018,38.2998104 25.0946663,36.9752337 24.9242521,35.471565 L1.28812945,35.471565 C1.59223374,37.5802982 3.40918773,39.2059607 5.59966933,39.2059607 Z M34.8480129,34.8486417 L34.8480129,18.0456847 L36.0902123,18.0456847 L36.0902123,34.8486417 C36.0902123,37.9357153 33.5809117,40.4481601 30.4905681,40.4481601 L5.59966933,40.4481601 C2.51246994,40.4481601 2.51533742e-05,37.9357153 2.51533742e-05,34.8486417 C2.51533742e-05,34.5055497 0.279227607,34.2254669 0.623074233,34.2254669 L3.73442086,34.2254669 L3.73442086,1.24662638 C3.73442086,0.902779755 4.01047914,0.623577301 4.35746994,0.623577301 L35.471062,0.623577301 C35.8140282,0.623577301 36.0902123,0.902779755 36.0902123,1.24662638 L36.0902123,5.60017239 L34.8480129,5.60017239 L34.8480129,1.86967546 L4.97662025,1.86967546 L4.97662025,34.2254669 L25.5138472,34.2254669 C25.8569393,34.2254669 26.1368963,34.5055497 26.1368963,34.8486417 C26.1368963,37.2489025 28.0901816,39.2059607 30.4905681,39.2059607 C32.893973,39.2059607 34.8480129,37.2489025 34.8480129,34.8486417 Z" id="Fill-1"></path>
                    <path d="M18.0450558,7.46934479 C18.0450558,6.43956564 18.8835436,5.60019755 19.9142031,5.60019755 C20.9409638,5.60019755 21.7794515,6.43956564 21.7794515,7.46934479 C21.7794515,8.49912393 20.9409638,9.33459325 19.9142031,9.33459325 C18.8835436,9.33459325 18.0450558,8.49912393 18.0450558,7.46934479 M23.0256755,7.46934479 C23.0256755,5.75262699 21.6277767,4.35799816 19.9142031,4.35799816 C18.1974853,4.35799816 16.8028564,5.75262699 16.8028564,7.46934479 C16.8028564,9.1829184 18.1974853,10.5806914 19.9142031,10.5806914 C21.6277767,10.5806914 23.0256755,9.1829184 23.0256755,7.46934479" id="Fill-3"></path>
                    <polygon id="Fill-5" points="6.84574233 6.22395092 14.9338098 6.22395092 14.9338098 4.98099693 6.84574233 4.98099693"></polygon>
                    <polygon id="Fill-7" points="6.84574233 8.71224847 14.9338098 8.71224847 14.9338098 7.46929448 6.84574233 7.46929448"></polygon>
                    <polygon id="Fill-9" points="6.84574233 11.203816 14.9338098 11.203816 14.9338098 9.95771779 6.84574233 9.95771779"></polygon>
                    <polyline id="Fill-11" points="18.4098929 28.002761 7.46880399 28.002761 7.46880399 29.2488592 21.1563899 29.2488592 21.1563899 28.002761 20.1693715 28.002761"></polyline>
                    <polygon id="Fill-13" points="9.95708896 14.9350675 25.5139479 14.9350675 25.5139479 13.6921135 9.95708896 13.6921135"></polygon>
                    <polygon id="Fill-15" points="7.46879141 17.4263834 23.0256503 17.4263834 23.0256503 16.180411 7.46879141 16.180411"></polygon>
                    <polygon id="Fill-16" points="7.46879141 19.914681 13.0684356 19.914681 13.0684356 18.6685828 7.46879141 18.6685828"></polygon>
                    <polygon id="Fill-17" points="14.310635 19.914681 21.1563773 19.914681 21.1563773 18.6685828 14.310635 18.6685828"></polygon>
                    <polygon id="Fill-18" points="7.46879141 22.4029785 19.2911288 22.4029785 19.2911288 21.1568804 7.46879141 21.1568804"></polygon>
                    <polygon id="Fill-19" points="22.4026012 31.7371442 31.7366411 31.7371442 31.7366411 30.491046 22.4026012 30.491046"></polygon>
                    <path d="M39.7123359,11.4039865 L39.0653911,12.0510571 L35.1837224,8.16926258 L35.8306672,7.52231779 C36.1764003,7.17658466 36.7786979,7.17658466 37.1245567,7.52231779 L39.7123359,10.1100969 C40.270112,10.6677472 39.8907991,11.2255233 39.7123359,11.4039865 L39.7123359,11.4039865 Z M27.388566,23.526781 L23.6917745,19.8298638 L34.7717101,8.74980245 L36.2127469,10.1908393 L31.8996979,14.5037626 L32.7145414,15.3187319 L37.0275905,11.0056828 L38.4686273,12.4467196 L27.388566,23.526781 Z M24.3231242,26.5596491 L20.6794064,22.9158055 L23.1084678,20.4867442 L26.7523113,24.130462 L24.3231242,26.5596491 Z M19.5220997,27.6220018 L20.1884126,24.3016307 L22.8425966,26.9558147 L19.5220997,27.6220018 Z M40.2885997,9.10295583 L38.1255353,6.93989141 C37.2583727,6.07272883 35.7480383,6.07272883 34.8808758,6.93989141 L30.2564279,11.5643393 L28.7459678,13.0935387 L19.6088788,22.2305018 L18.247704,28.9807871 L24.9978635,27.628919 L28.736661,23.8901215 L30.2657347,22.3703546 L40.2885997,12.3476153 C40.7174647,11.9094436 41.565888,10.3802442 40.2885997,9.10295583 L40.2885997,9.10295583 Z" id="Fill-20"></path>
                </g>
            </g>
        </g>
    </g>
</svg>