<?xml version="1.0" encoding="UTF-8"?>
<svg width="30px" height="29px" viewBox="0 0 30 29" version="1.1" xmlns="http://www.w3.org/2000/svg" xmlns:xlink="http://www.w3.org/1999/xlink">
    <g id="Page-1" stroke="none" stroke-width="1" fill="none" fill-rule="evenodd">
        <g id="FAS-Search-7.0---mobile" transform="translate(-310.000000, -474.000000)" fill="#00529D">
            <g id="Page-1" transform="translate(310.000000, 474.000000)">
                <g id="Group-10">
                    <path d="M18.6940408,12.0129054 C19.9742197,12.0129054 21.0170659,13.0555229 21.0170659,14.3360066 C21.0170659,15.6164903 19.9742197,16.6590316 18.6940408,16.6590316 C17.4135571,16.6590316 16.3647662,15.6164903 16.3647662,14.3360066 C16.3647662,13.0555229 17.4073075,12.0129054 18.6940408,12.0129054 M14.4016272,15.3786241 C14.8711099,17.3113535 16.6148268,18.7502114 18.6940408,18.7502114 C20.7729501,18.7502114 22.5107222,17.3113535 22.9864545,15.3786241 L28.8273229,15.3786241 C29.4067073,15.3786241 29.8761901,14.9090652 29.8761901,14.329757 C29.8761901,13.7506775 29.4067073,13.2871395 28.8273229,13.2871395 L22.9864545,13.2871395 C22.5169718,11.3544101 20.7729501,9.91555217 18.6940408,9.91555217 C16.6148268,9.91555217 14.8770547,11.3544101 14.4016272,13.2871395 L1.04888238,13.2871395 C0.46949799,13.2871395 1.52429463e-05,13.7566222 1.52429463e-05,14.329757 C0.00595999202,14.9151624 0.475442739,15.3786241 1.04888238,15.3786241 L14.4016272,15.3786241 Z" id="Fill-1"></path>
                    <path d="M11.7492783,21.9225509 C13.029762,21.9225509 14.0723795,22.9651684 14.0723795,24.2455759 C14.0723795,25.5257548 13.029762,26.5683723 11.7492783,26.5683723 C10.4873148,26.5683723 9.45658672,25.5564693 9.42625326,24.2941247 L9.42625326,24.1846041 C9.45658672,22.9344539 10.4873148,21.9225509 11.7492783,21.9225509 M1.04888238,25.2941382 L7.45686459,25.2941382 C7.92634734,27.2269438 9.67006419,28.6660304 11.7492783,28.6660304 C13.8284924,28.6660304 15.5659596,27.2269438 16.041692,25.2941382 L28.8273229,25.2941382 C29.4067073,25.2941382 29.8761901,24.8247317 29.8761901,24.2515969 C29.8761901,23.6722125 29.4067073,23.2027297 28.8273229,23.2027297 L16.041692,23.2027297 C15.5722092,21.2699241 13.8284924,19.8311424 11.7492783,19.8311424 C9.67006419,19.8311424 7.93229209,21.2699241 7.45686459,23.2027297 L1.04888238,23.2027297 C0.46949799,23.2027297 1.52429463e-05,23.6722125 1.52429463e-05,24.2515969 C0.00595999202,24.8247317 0.475442739,25.2941382 1.04888238,25.2941382" id="Fill-4"></path>
                    <path d="M11.7492783,2.09733796 C13.029762,2.09733796 14.0723795,3.13995549 14.0723795,4.4204392 C14.0723795,5.70061804 13.029762,6.74315936 11.7492783,6.74315936 C10.4873148,6.74315936 9.45658672,5.73125637 9.42625326,4.46898798 L9.42625326,4.3593912 C9.45658672,3.11556677 10.4873148,2.09733796 11.7492783,2.09733796 M1.04888238,5.46900147 L7.45686459,5.46900147 C7.92634734,7.40173086 9.67006419,8.84089363 11.7492783,8.84089363 C13.8284924,8.84089363 15.5659596,7.40173086 16.041692,5.46900147 L28.8273229,5.46900147 C29.4067073,5.46900147 29.8761901,4.99951873 29.8761901,4.4204392 C29.8761901,3.84105481 29.4067073,3.37751681 28.8273229,3.37751681 L16.041692,3.37751681 C15.5722092,1.44478743 13.8284924,0.00592950613 11.7492783,0.00592950613 C9.67006419,0.00592950613 7.93229209,1.44478743 7.45686459,3.37751681 L1.04888238,3.37751681 C0.46949799,3.37751681 1.52429463e-05,3.84699955 1.52429463e-05,4.4204392 C0.00595999202,4.99951873 0.475442739,5.46900147 1.04888238,5.46900147" id="Fill-7"></path>
                </g>
            </g>
        </g>
    </g>
</svg>
