<?xml version="1.0" encoding="UTF-8"?>
<svg width="41px" height="41px" viewBox="0 0 41 41" version="1.1" xmlns="http://www.w3.org/2000/svg" xmlns:xlink="http://www.w3.org/1999/xlink">
    <!-- Generator: Sketch 46.2 (44496) - http://www.bohemiancoding.com/sketch -->
    <title>innovation</title>
    <desc>Created with Sketch.</desc>
    <defs>
        <polygon id="path-1" points="40.999968 41 0 41 0 3.203125e-05 40.999968 3.203125e-05"></polygon>
    </defs>
    <g id="Contact-form-&amp;-Sign-up" stroke="none" stroke-width="1" fill="none" fill-rule="evenodd">
        <g id="FAS-1200-submit-opp---Food-and-drink-with-icons---final" transform="translate(-462.000000, -741.000000)">
            <g id="Group-5" transform="translate(60.000000, 591.000000)">
                <g id="innovation" transform="translate(402.000000, 150.000000)">
                    <path d="M21.6736781,32.3056143 C21.9936227,30.7051131 22.4465251,27.1899616 21.6201974,22.4482813 C22.9646536,22.4103829 25.3892946,22.0983478 27.0115685,20.4760003 C29.309829,18.1778248 28.9790004,14.2681074 28.9638097,14.1027328 C28.9277122,13.7102028 28.6166158,13.3991074 28.2239281,13.3629316 C28.0586313,13.347741 24.1488243,13.016835 21.8506421,15.3150106 C21.167295,15.9982773 20.7164285,16.8240545 20.4205228,17.6515543 C20.2858423,17.2384308 20.1434098,16.826247 19.9933037,16.4159424 C19.8380296,15.9915433 19.3679789,15.7735494 18.9438135,15.9287448 C18.5194133,16.0840185 18.3012621,16.5539112 18.4566145,16.9782319 C19.0232907,18.5271318 19.4761148,20.1010884 19.8024019,21.6564091 C19.8514193,21.8899068 19.8967565,22.1204291 19.9391966,22.3484457 C19.328436,21.6635346 18.5618533,21.0382116 17.620499,20.6578968 C14.6068657,19.4402944 11.1372761,21.272649 10.9910851,21.3512646 C10.6437346,21.5378592 10.4790642,21.9456581 10.5991804,22.3211965 C10.6496856,22.4793673 11.8727727,26.2075014 14.8863278,27.4251038 C15.6340396,27.7271161 16.4094706,27.8414376 17.155538,27.8414376 C18.435003,27.8414376 19.6269257,27.5050505 20.4409598,27.2023334 C20.4875499,29.7596116 20.1629072,31.5715292 19.9875093,32.3517344 C13.6828946,32.0825307 8.63629008,26.8699397 8.63629008,20.4999608 C8.63629008,13.9584214 13.9583633,8.63636364 20.5,8.63636364 C27.0416367,8.63636364 32.3636316,13.9584214 32.3636316,20.4999608 C32.3636316,26.6456033 27.6664134,31.7142745 21.6736781,32.3056143 M16.5095413,25.0274058 L18.8657458,25.9793282 C17.862141,26.230444 16.6084375,26.356041 15.4995157,25.9079164 C13.865653,25.2478271 12.8699567,23.4736512 12.4278601,22.4944014 C13.4237912,22.0956072 15.3654616,21.5116279 17.0075461,22.1751625 C18.1166245,22.6232871 18.9313634,23.5844491 19.4786988,24.4621408 L17.1224943,23.5101402 C16.7035752,23.341007 16.2267122,23.5433404 16.0574219,23.9622582 C15.8881316,24.3812544 16.0905439,24.8581943 16.5095413,25.0274058 M24.5806633,17.7459087 C24.2611886,17.4264349 23.7431384,17.4264349 23.423507,17.7459087 L21.6223116,19.5471772 C21.7821273,18.5265054 22.1566488,17.323154 23.0077201,16.4721635 C24.2537498,15.226059 26.2759153,15.0028189 27.3499142,14.9786234 C27.3278328,16.0511315 27.1066279,18.0667136 25.8544122,19.3189257 C25.0085872,20.1648266 23.8054673,20.5391121 22.7836962,20.7000235 L24.580585,18.9031399 C24.900138,18.5835878 24.900138,18.0655391 24.5806633,17.7459087 M20.5,7 C13.0560821,7 7,13.0561428 7,20.4999608 C7,27.9438572 13.0560821,34 20.5,34 C27.9438396,34 34,27.9438572 34,20.4999608 C34,13.0561428 27.9438396,7 20.5,7" id="Fill-1" fill="#00529D"></path>
                    <g id="Group-5">
                        <mask id="mask-2" fill="white">
                            <use xlink:href="#path-1"></use>
                        </mask>
                        <g id="Clip-4"></g>
                        <path d="M39.3264953,22.1735047 L37.0472316,22.1735047 C36.6332277,22.1735047 36.2815246,22.4762801 36.2197844,22.8857195 C36.0444133,24.0521375 35.737634,25.1994168 35.3082551,26.2956863 C35.1573879,26.6808621 35.3107375,27.1185691 35.669007,27.3254109 L37.6410109,28.4639617 L35.9675383,31.3624695 L33.9915305,30.2216766 C33.6336613,30.0149148 33.178177,30.1006785 32.9198449,30.4235535 C32.1836066,31.3438113 31.3437473,32.1835906 30.4235695,32.9198289 C30.1007746,33.1781609 30.0149309,33.6334051 30.2216926,33.9915945 L31.3625656,35.9676023 L28.4639777,37.641075 L27.325507,35.6690711 C27.1185852,35.3107215 26.680798,35.157452 26.2957023,35.3083191 C25.1994328,35.7377781 24.0522336,36.0444773 22.8857355,36.2198484 C22.4762961,36.2815086 22.1735207,36.6332117 22.1735207,37.0472957 L22.1735207,39.3264793 L18.8264953,39.3264793 L18.8264953,37.0472156 C18.8264953,36.6332117 18.5237199,36.2814285 18.1142004,36.2197684 C16.9479426,36.0443973 15.8005832,35.737698 14.7042336,35.3082391 C14.3190578,35.1572918 13.8813508,35.3106414 13.674509,35.668991 L12.5360383,37.6409949 L9.63745039,35.9675223 L10.7783234,33.9915145 C10.9850852,33.6334051 10.8992414,33.1781609 10.5764465,32.9197488 C9.65642891,32.1836707 8.81648945,31.3438914 8.08017109,30.4234734 C7.82183906,30.1005984 7.36651484,30.0148348 7.00848555,30.2215965 L5.03247773,31.3623895 L3.35900508,28.4638816 L5.33100898,27.3253309 C5.68927852,27.1184891 5.84262813,26.680782 5.69176094,26.2956063 C5.26238203,25.1992566 4.95568281,24.0520574 4.78015156,22.8856395 C4.71857148,22.4762 4.36686836,22.1733445 3.9527043,22.1733445 L1.67344063,22.1733445 L1.67344063,18.8264793 L3.9527043,18.8264793 C4.36678828,18.8264793 4.71849141,18.5236238 4.78015156,18.1142645 C4.95568281,16.9478465 5.26238203,15.8005672 5.69176094,14.7042977 C5.84262813,14.3190418 5.68927852,13.8813348 5.33100898,13.674493 L3.35900508,12.5359422 L5.03247773,9.63743438 L7.00848555,10.7782273 C7.36643477,10.9849891 7.82191914,10.8993055 8.08017109,10.5763504 C8.81640938,9.65617266 9.65626875,8.8162332 10.5764465,8.080075 C10.8992414,7.82182305 10.9850051,7.36641875 10.7783234,7.00838945 L9.63753047,5.0325418 L12.5360383,3.35906914 L13.674509,5.33107305 C13.8813508,5.68934258 14.3190578,5.84285234 14.7042336,5.691825 C15.8005832,5.26236602 16.9478625,4.95574688 18.1142004,4.78021563 C18.5237199,4.71863555 18.8264953,4.36693242 18.8264953,3.95276836 L18.8264953,1.67350469 L22.1735207,1.67350469 L22.1735207,3.95276836 C22.1735207,4.36685234 22.4762961,4.71863555 22.8857355,4.78021563 C24.0521535,4.95574688 25.1994328,5.26236602 26.2957023,5.691825 C26.6811184,5.84285234 27.1186652,5.68934258 27.325507,5.33107305 L28.4639777,3.35906914 L31.3624855,5.0325418 L30.2216926,7.00846953 C30.0149309,7.36649883 30.1007746,7.82190313 30.4235695,8.08015508 C31.3439074,8.81647344 32.1837668,9.65633281 32.9198449,10.5764305 C33.178177,10.8993055 33.6334211,10.9849891 33.9916105,10.7783074 L35.9676184,9.63751445 L37.641091,12.5360223 L35.6690871,13.674573 C35.3108176,13.8814148 35.1573879,14.3191219 35.3083352,14.7043777 C35.7377141,15.8006473 36.0444934,16.9479266 36.2198645,18.1143445 C36.2815246,18.5237039 36.6332277,18.8265594 37.0473117,18.8265594 L39.3264953,18.8265594 L39.3264953,22.1735047 Z M40.1632316,17.1530867 L37.7523996,17.1530867 C37.5964875,16.3453387 37.3833195,15.5485613 37.1158586,14.7716434 L39.2024543,13.566868 C39.6026047,13.3358426 39.7397785,12.8241434 39.508673,12.4239129 L36.9985441,8.07615117 C36.7674387,7.6759207 36.2556594,7.53882695 35.855509,7.76993242 L33.764509,8.97719023 C33.2255031,8.35738555 32.6428547,7.77465703 32.02305,7.23565117 L33.2302277,5.14465117 C33.341216,4.95246367 33.3713254,4.72416094 33.3138293,4.50971172 C33.2563332,4.29534258 33.1161965,4.1126043 32.924009,4.00169609 L28.5761672,1.49148711 C28.3839797,1.38049883 28.1555969,1.35054961 27.9412277,1.40788555 C27.7268586,1.46538164 27.5441203,1.60551836 27.4332121,1.79770586 L26.2285969,3.88438164 C25.4515188,3.61668047 24.6547414,3.40367266 23.8470734,3.24776055 L23.8470734,0.836768359 C23.8470734,0.3746375 23.472548,3.203125e-05 23.0103371,3.203125e-05 L17.9899992,3.203125e-05 C17.5278684,3.203125e-05 17.1531828,0.3746375 17.1531828,0.836768359 L17.1531828,3.24760039 C16.3455148,3.40359258 15.5487375,3.61660039 14.7718195,3.88422148 L13.5671242,1.7975457 C13.456216,1.6053582 13.2734777,1.46514141 13.0591086,1.40772539 C12.8447395,1.35038945 12.6162766,1.38033867 12.4241691,1.49132695 L8.07632734,4.00153594 C7.88413984,4.11244414 7.74392305,4.29518242 7.68650703,4.50963164 C7.62901094,4.7239207 7.65912031,4.95230352 7.77010859,5.14449102 L8.97728633,7.23549102 C8.35748164,7.77449688 7.7748332,8.35714531 7.23582734,8.97703008 L5.14482734,7.76977227 C4.74467695,7.53882695 4.23297773,7.6759207 4.00187227,8.07599102 L1.49166328,12.4237527 C1.26055781,12.8239832 1.39773164,13.3356824 1.79788203,13.5667879 L3.88455781,14.7714832 C3.61693672,15.5484012 3.40392891,16.3451785 3.24793672,17.1529266 L0.836784375,17.1529266 C0.374653516,17.1529266 -3.203125e-05,17.527452 -3.203125e-05,17.9895828 L-3.203125e-05,23.0100008 C-3.203125e-05,23.4722117 0.374653516,23.8468172 0.836784375,23.8468172 L3.24761641,23.8468172 C3.40360859,24.6544051 3.61661641,25.4513426 3.8842375,26.2281805 L1.79756172,27.4329559 C1.39733125,27.6639012 1.2602375,28.1756805 1.49126289,28.5759109 L4.00155195,32.9236727 C4.23249727,33.323823 4.74427656,33.4609168 5.14450703,33.2298914 L7.23550703,32.0226336 C7.77451289,32.6425184 8.35724141,33.2252469 8.97696602,33.7641727 L7.76978828,35.8551727 C7.6588,36.0473602 7.62869063,36.2756629 7.68618672,36.490032 C7.74368281,36.7044813 7.88381953,36.8871395 8.07600703,36.9981277 L12.4238488,39.5084168 C12.6161164,39.619325 12.8444191,39.6493543 13.0587883,39.5919383 C13.2729973,39.5344422 13.4558957,39.3943055 13.5668039,39.2020379 L14.7714992,37.1154422 C15.5484172,37.3831434 16.3452746,37.5961512 17.1529426,37.7520633 L17.1529426,40.1632156 C17.1529426,40.6254266 17.527468,41.000032 17.9895988,41.000032 L23.0100168,41.000032 C23.4722277,41.000032 23.8467531,40.6254266 23.8467531,40.1632156 L23.8467531,37.7523836 C24.6544211,37.5964715 25.4512785,37.3833035 26.2281965,37.1158426 L27.4328918,39.2024383 C27.5438,39.3946258 27.7266184,39.5349227 27.9409074,39.5922586 C28.1552766,39.6497547 28.3836594,39.6197254 28.5758469,39.5087371 L32.9236887,36.9985281 C33.1158762,36.8875398 33.256093,36.7048016 33.313509,36.4904324 C33.3710051,36.2759832 33.3408957,36.0476004 33.2299074,35.855493 L32.0226496,33.764493 C32.6425344,33.2254871 33.2251828,32.6428387 33.7641887,32.023034 L35.8551086,33.2302117 C36.255259,33.461157 36.7671184,33.3242234 36.9981438,32.923993 L39.5083527,28.5762313 C39.7394582,28.1760008 39.6022844,27.6642215 39.2020539,27.4332762 L37.1154582,26.2285809 C37.3829992,25.4516629 37.5960871,24.6548055 37.7520793,23.8470574 L40.1632316,23.8470574 C40.6254426,23.8470574 40.999968,23.472532 40.999968,23.0103211 L40.999968,17.9899832 C40.999968,17.5276922 40.6254426,17.1530867 40.1632316,17.1530867 L40.1632316,17.1530867 Z" id="Fill-3" fill="#00529D" mask="url(#mask-2)"></path>
                    </g>
                    <path d="M17.909368,12.2585462 C17.7945889,12.0312108 17.5086253,11.9358935 17.2706428,12.0454275 C17.0327062,12.1551364 16.9328524,12.4284026 17.0475858,12.655738 L17.0897066,12.7395944 C17.1717506,12.9039391 17.3431639,13 17.5218567,13 C17.5908524,13 17.6609927,12.9856521 17.7274245,12.9553378 C17.9659106,12.8467225 18.0670463,12.57385 17.9532744,12.3460334 L17.909368,12.2585462 Z" id="Fill-6" fill="#00529D"></path>
                </g>
            </g>
        </g>
    </g>
</svg>