<?xml version="1.0" encoding="UTF-8"?>
<svg width="41px" height="42px" viewBox="0 0 41 42" version="1.1" xmlns="http://www.w3.org/2000/svg" xmlns:xlink="http://www.w3.org/1999/xlink">
    <!-- Generator: Sketch 46.2 (44496) - http://www.bohemiancoding.com/sketch -->
    <title>Judges</title>
    <desc>Created with Sketch.</desc>
    <defs></defs>
    <g id="Contact-form-&amp;-Sign-up" stroke="none" stroke-width="1" fill="none" fill-rule="evenodd">
        <g id="FAS-1200-submit-opp---Legal-services" transform="translate(-60.000000, -741.000000)" fill="#00529D">
            <g id="Group-5" transform="translate(60.000000, 591.000000)">
                <g id="Group-2" transform="translate(0.000000, 150.000000)">
                    <g id="Judges">
                        <path d="M19.3761911,40.3725069 L39.7804488,40.3725069 L39.7804488,39.0369972 L19.3761911,39.0369972 L19.3761911,40.3725069 Z M21.6020028,35.7389391 L37.5546371,35.7389391 L39.1753296,37.8559474 L19.9814238,37.8559474 L21.6020028,35.7389391 Z M21.9010416,34.5574349 L37.2560526,34.5574349 L37.2560526,34.1031413 L21.9010416,34.1031413 L21.9010416,34.5574349 Z M40.96059,38.4465291 C40.96059,38.3190997 40.9206122,38.1926925 40.8403158,38.0875235 L38.4371025,34.9479003 L38.4371025,33.5126731 C38.4371025,33.1866039 38.1727036,32.922205 37.8466343,32.922205 L21.3105734,32.922205 C20.9840499,32.922205 20.719651,33.1866039 20.719651,33.5126731 L20.719651,34.9479003 L18.3167784,38.0875235 C18.236482,38.1926925 18.1961634,38.3190997 18.1961634,38.4465291 L18.1952548,40.9633158 C18.1952548,41.289385 18.459313,41.5537839 18.785723,41.5537839 L40.3709169,41.5537839 C40.6974404,41.5537839 40.9618393,41.289385 40.9618393,40.9633158 L40.96059,38.4465291 Z" id="Fill-4"></path>
                        <path d="M3.42891745,37.3852537 C2.91522493,37.8989463 2.07943823,37.8989463 1.56608643,37.3852537 C1.05239391,36.8715612 1.05239391,36.0356609 1.56608643,35.5224227 L20.5235324,16.5645224 L22.3863634,18.4279213 L3.42891745,37.3852537 Z M24.5558427,6.93599612 L31.65861,14.038877 L28.6609535,17.0366471 L25.6631834,20.0337357 L18.5604161,12.931082 L24.5558427,6.93599612 Z M15.7569701,12.478492 C15.6088704,12.3405003 15.5027928,12.1745695 15.4415767,11.9851291 C15.3715019,11.7677496 15.2738288,11.5637717 15.1541224,11.374672 L22.999092,3.52970249 C23.1876238,3.64952244 23.3921695,3.74708199 23.609549,3.81727036 C23.7989895,3.87848643 23.9653745,3.98445042 24.1029119,4.13266371 C24.5243828,4.58514017 24.4976931,5.32336731 24.0433994,5.77766094 L17.4020809,12.4190931 C16.9477873,12.8733867 16.2095601,12.8999629 15.7569701,12.478492 L15.7569701,12.478492 Z M13.2145158,9.93637839 C12.7930449,9.48344765 12.8196211,8.74578837 13.274369,8.29149474 L19.9153468,1.64994903 C20.1539645,1.4113313 20.4702665,1.29060277 20.7825934,1.29060277 C21.0657319,1.29060277 21.3455767,1.3899795 21.5607983,1.59009584 C21.7085573,1.72808753 21.8149756,1.89401828 21.8761917,2.08391302 C21.9462665,2.30083823 22.0439396,2.50538393 22.1637596,2.69437008 L14.3186765,10.5393396 C14.1296903,10.4195197 13.9251446,10.3219601 13.7082194,10.2518853 C13.5183247,10.190215 13.3523939,10.0841374 13.2145158,9.93637839 L13.2145158,9.93637839 Z M34.4616017,14.4913535 C34.6097014,14.6293452 34.7157789,14.7951623 34.776995,14.9846028 C34.8470698,15.2019823 34.9447429,15.406528 35.0649036,15.5956277 L27.2199341,23.4402565 C27.0309479,23.320323 26.8264022,23.222877 26.609477,23.1526886 C26.4195823,23.0914726 26.2536515,22.985395 26.1156598,22.8371817 C25.6941889,22.3847053 25.7208787,21.6473867 26.174718,21.1927524 L32.8164909,14.5507524 C33.0547679,14.3124753 33.3715241,14.1918604 33.683851,14.1918604 C33.9668759,14.1918604 34.2463801,14.2907828 34.4616017,14.4913535 L34.4616017,14.4913535 Z M37.004056,17.0339213 C37.4255269,17.4863978 37.3989507,18.2246249 36.9446571,18.6789186 L30.3032249,25.3198964 C29.8489313,25.7746443 29.1107042,25.8012205 28.6582277,25.3797496 C28.5100144,25.2417579 28.4040504,25.0758271 28.3428343,24.8859324 C28.2728731,24.6690072 28.1750864,24.4644615 28.0549258,24.2754753 L35.8998953,16.4306194 C36.0888814,16.5503258 36.2934271,16.6478853 36.5103524,16.7179601 C36.7002471,16.7796305 36.8661778,16.885708 37.004056,17.0339213 L37.004056,17.0339213 Z M24.9080338,20.9494781 C24.4608953,21.8174061 24.569585,22.9105501 25.2514798,23.6424172 C25.5242831,23.9352094 25.8681834,24.1544061 26.2461557,24.2768382 C26.7066958,24.4255058 27.0700172,24.789395 27.2185712,25.2493673 C27.3410033,25.6273396 27.5602,25.9711263 27.8529922,26.2439296 C28.2926349,26.6535889 28.8623191,26.8562039 29.4355241,26.8562039 C30.0522277,26.8562039 30.6723385,26.6211069 31.1386709,26.1552288 L37.7796488,19.5139102 C38.6784687,18.6149767 38.718333,17.1412482 37.8683496,16.2286859 C37.595887,15.9357801 37.251646,15.716697 36.8736737,15.5942648 C36.4135878,15.4455972 36.0498122,15.0819352 35.9012582,14.6217357 C35.7787125,14.2437634 35.5596294,13.8999767 35.2668371,13.6271734 C34.5347429,12.9452787 33.4420532,12.8365889 32.5743524,13.2841817 L25.310538,6.02036731 C25.7576765,5.15255291 25.6489867,4.05940886 24.9675463,3.32742825 C24.6947429,3.03463601 24.3508427,2.81543934 23.9728704,2.6934615 C23.5124438,2.54433961 23.1485546,2.18101828 23.0000006,1.72059169 C22.8780227,1.34250582 22.6583717,0.998832687 22.3655795,0.725915789 C21.4530172,-0.124181163 19.9791751,-0.0842033241 19.0803551,0.81461662 L12.438923,7.45604875 C11.540103,8.35475512 11.5002388,9.82859723 12.3502222,10.7411596 C12.6231391,11.0339518 12.9669258,11.2537163 13.3448981,11.3755806 C13.8054382,11.5242482 14.1687596,11.8880238 14.3177679,12.3481097 C14.4398593,12.726082 14.6593967,13.070323 14.9521889,13.3427856 C15.3914909,13.7523313 15.9615158,13.9554006 16.5342665,13.9554006 C16.9157596,13.9554006 17.2982748,13.8648825 17.645128,13.6862316 L19.6882,15.7295307 L0.730754017,34.6869767 C-0.243592244,35.6612094 -0.243592244,37.2463535 0.730754017,38.2205861 C1.21787036,38.7078161 1.85751579,38.9513175 2.49727479,38.9513175 C3.13748809,38.9513175 3.77724709,38.7078161 4.26436343,38.2205861 L23.2218094,19.2632537 L24.9080338,20.9494781 Z" id="Fill-1"></path>
                        <path d="M29.1089892,14.3436626 C29.2243798,14.4590532 29.3752053,14.5166349 29.526485,14.5166349 C29.6777648,14.5166349 29.8285903,14.4590532 29.9439809,14.3436626 C30.1746485,14.112995 30.1746485,13.7389978 29.9439809,13.5082166 L25.085992,8.65034127 C24.8553244,8.41967368 24.4813271,8.41967368 24.2506596,8.65034127 C24.0198784,8.88100886 24.0198784,9.25500609 24.2506596,9.48567368 L29.1089892,14.3436626 Z" id="Fill-6"></path>
                    </g>
                </g>
            </g>
        </g>
    </g>
</svg>