<?xml version="1.0" encoding="UTF-8"?>
<svg width="41px" height="43px" viewBox="0 0 41 43" version="1.1" xmlns="http://www.w3.org/2000/svg" xmlns:xlink="http://www.w3.org/1999/xlink">
    <!-- Generator: Sketch 46.2 (44496) - http://www.bohemiancoding.com/sketch -->
    <title>professional law</title>
    <desc>Created with Sketch.</desc>
    <defs></defs>
    <g id="Contact-form-&amp;-Sign-up" stroke="none" stroke-width="1" fill="none" fill-rule="evenodd">
        <g id="FAS-1200-submit-opp---Legal-services" transform="translate(-461.000000, -741.000000)" fill="#00529D">
            <g id="Group-5" transform="translate(60.000000, 591.000000)">
                <g id="professional-law" transform="translate(401.000000, 150.000000)">
                    <path d="M37.8524333,25.4041778 L36.0416556,25.4041778 L37.0546556,22.8256222 L39.3411,22.8256222 L37.8524333,25.4041778 Z M28.2196556,22.8256222 L35.8133222,22.8256222 L34.8003222,25.4041778 L29.7083222,25.4041778 L28.2196556,22.8256222 Z M33.7803222,12.0384 L39.3411,21.6699556 L28.2196556,21.6699556 L33.7803222,12.0384 Z M19.9605444,27.2628444 L20.9587667,27.2628444 L20.9587667,11.4607333 L19.9605444,11.4607333 L19.9605444,27.2628444 Z M19.1249889,36.2615111 L21.7946556,36.2615111 L21.7946556,28.4185111 L19.1249889,28.4185111 L19.1249889,36.2615111 Z M30.1871,38.6595111 L27.2204333,38.6595111 L27.7083222,37.4171778 L30.1871,37.4171778 L30.1871,38.6595111 Z M31.3957667,41.0579556 L14.1757667,41.0579556 L14.6636556,39.8151778 L31.3957667,39.8151778 L31.3957667,41.0579556 Z M9.52432222,39.8151778 L13.4223222,39.8151778 L12.9344333,41.0579556 L9.52432222,41.0579556 L9.52432222,39.8151778 Z M25.4726556,38.6595111 L25.9608778,37.4171778 L26.4669889,37.4171778 L25.9791,38.6595111 L25.4726556,38.6595111 Z M10.7331,37.4171778 L24.7192111,37.4171778 L24.2313222,38.6595111 L10.7331,38.6595111 L10.7331,37.4171778 Z M1.57854444,21.6699556 L7.13932222,12.0384 L12.7005444,21.6699556 L1.57854444,21.6699556 Z M11.2113222,25.4041778 L6.74343333,25.4041778 L7.75654444,22.8256222 L12.7001,22.8256222 L11.2113222,25.4041778 Z M1.57854444,22.8256222 L4.5521,22.8256222 L3.53943333,25.4041778 L3.06721111,25.4041778 L1.57854444,22.8256222 Z M6.51476667,22.8256222 L5.50221111,25.4041778 L4.78076667,25.4041778 L5.79387778,22.8256222 L6.51476667,22.8256222 Z M9.11798889,9.30662222 L31.8021,9.30662222 C32.4344333,9.30662222 32.9704333,9.7284 33.1441,10.3051778 L7.77598889,10.3051778 C7.94921111,9.72806667 8.48521111,9.30662222 9.11798889,9.30662222 L9.11798889,9.30662222 Z M19.9605444,5.48062222 C20.1224333,5.51062222 20.2894333,5.52695556 20.4601,5.52695556 C20.6302111,5.52695556 20.7968778,5.51062222 20.9587667,5.48062222 L20.9587667,8.15117778 L19.9605444,8.15117778 L19.9605444,5.48062222 Z M20.4601,1.17251111 C21.3419889,1.17251111 22.0594333,1.88995556 22.0594333,2.77195556 C22.0594333,3.65384444 21.3419889,4.37128889 20.4601,4.37128889 C19.5781,4.37128889 18.8606556,3.65384444 18.8606556,2.77195556 C18.8606556,1.88995556 19.5781,1.17251111 20.4601,1.17251111 L20.4601,1.17251111 Z M40.8424333,21.9588444 L34.3581,10.7075111 C34.3581,9.29784444 33.2113222,8.15117778 31.8016556,8.15117778 L22.1145444,8.15117778 L22.1145444,4.97328889 C22.7821,4.46973333 23.2148778,3.67062222 23.2148778,2.77195556 C23.2148778,1.25273333 21.9791,0.0171777778 20.4601,0.0171777778 C18.9409889,0.0171777778 17.7048778,1.25273333 17.7048778,2.77195556 C17.7048778,3.6704 18.1375444,4.46928889 18.8046556,4.97273333 L18.8046556,8.15117778 L9.11798889,8.15117778 C7.70832222,8.15117778 6.56165556,9.29784444 6.56165556,10.7075111 L0.0772111111,21.9588444 C-0.0255666667,22.1378444 -0.0255666667,22.3577333 0.0772111111,22.5365111 C0.0772111111,22.5365111 0.0776555556,22.5365111 0.0776555556,22.5369556 L2.23354444,26.2710667 C2.33632222,26.4497333 2.52732222,26.5599556 2.73354444,26.5599556 L11.5446556,26.5599556 C11.7513222,26.5599556 11.9418778,26.4497333 12.0451,26.2710667 L14.2013222,22.5365111 C14.2525444,22.4472889 14.2786556,22.3477333 14.2786556,22.2480667 C14.2786556,22.1480667 14.2525444,22.0484 14.2013222,21.9588444 L8.14021111,11.4606222 L18.8046556,11.4606222 L18.8046556,27.2628444 L18.5473222,27.2628444 C18.2283222,27.2628444 17.9696556,27.5215111 17.9696556,27.8405111 L17.9696556,36.2615111 L10.1549889,36.2615111 C9.83587778,36.2615111 9.57721111,36.5200667 9.57721111,36.8390667 L9.57721111,38.6595111 L8.94621111,38.6595111 C8.62721111,38.6595111 8.36843333,38.9180667 8.36843333,39.2375111 L8.36843333,41.6355111 C8.36843333,41.9545111 8.62721111,42.2131778 8.94621111,42.2131778 L31.9735444,42.2131778 C32.2929889,42.2131778 32.5516556,41.9545111 32.5516556,41.6355111 L32.5516556,39.2375111 C32.5516556,38.9180667 32.2929889,38.6595111 31.9735444,38.6595111 L31.3424333,38.6595111 L31.3424333,36.8390667 C31.3424333,36.5200667 31.0837667,36.2615111 30.7647667,36.2615111 L22.9501,36.2615111 L22.9501,27.8405111 C22.9501,27.5215111 22.6914333,27.2628444 22.3724333,27.2628444 L22.1145444,27.2628444 L22.1145444,11.4606222 L32.7799889,11.4606222 L26.7187667,21.9588444 C26.6671,22.0484 26.6411,22.1480667 26.6411,22.2480667 C26.6411,22.3472889 26.6671,22.4472889 26.7187667,22.5365111 L28.8745444,26.2710667 C28.9778778,26.4497333 29.1684333,26.5599556 29.3749889,26.5599556 L38.1862111,26.5599556 C38.3923222,26.5599556 38.5833222,26.4497333 38.6866556,26.2710667 L40.8424333,22.5365111 C40.8941,22.4472889 40.9196556,22.3472889 40.9196556,22.2480667 C40.9196556,22.1480667 40.8941,22.0484 40.8424333,21.9588444 L40.8424333,21.9588444 Z" id="Fill-1"></path>
                    <path d="M20.4601222,3.34954444 C20.6124556,3.34954444 20.7609,3.28832222 20.8680111,3.18065556 C20.9756778,3.07221111 21.0382333,2.92376667 21.0382333,2.77187778 C21.0382333,2.61987778 20.9756778,2.47143333 20.8680111,2.36298889 C20.7609,2.25532222 20.6124556,2.1941 20.4601222,2.1941 C20.3081222,2.1941 20.1589,2.25532222 20.0512333,2.36298889 C19.9440111,2.47065556 19.8823444,2.61987778 19.8823444,2.77187778 C19.8823444,2.92376667 19.9440111,3.0731 20.0512333,3.18065556 C20.1589,3.28832222 20.3081222,3.34954444 20.4601222,3.34954444" id="Fill-3"></path>
                </g>
            </g>
        </g>
    </g>
</svg>