<?xml version="1.0" encoding="UTF-8"?>
<svg width="41px" height="49px" viewBox="0 0 41 49" version="1.1" xmlns="http://www.w3.org/2000/svg" xmlns:xlink="http://www.w3.org/1999/xlink">
    <!-- Generator: Sketch 46.2 (44496) - http://www.bohemiancoding.com/sketch -->
    <title>quality</title>
    <desc>Created with Sketch.</desc>
    <defs></defs>
    <g id="Contact-form-&amp;-Sign-up" stroke="none" stroke-width="1" fill="none" fill-rule="evenodd">
        <g id="FAS-1200-submit-opp---Food-and-drink-with-icons---final" transform="translate(-862.000000, -741.000000)" fill="#00529D">
            <g id="Group-5" transform="translate(60.000000, 591.000000)">
                <g id="quality" transform="translate(802.000000, 150.000000)">
                    <path d="M6.20186025,15.7549335 C6.20186025,7.93018085 12.6161965,1.56382979 20.4999267,1.56382979 C28.3841821,1.56382979 34.7979931,7.93018085 34.7979931,15.7549335 C34.7979931,23.5800771 28.3841821,29.9459069 20.4999267,29.9459069 C12.6161965,29.9459069 6.20186025,23.5800771 6.20186025,15.7549335 M40.9398789,43.6182101 L34.4040889,27.9569761 C34.2378613,27.5584601 33.7767308,27.3685851 33.3746859,27.5339601 C32.9730349,27.6994654 32.7817288,28.156625 32.9484816,28.5556622 L38.8570448,42.7136649 L33.467516,41.1635186 C33.1135274,41.0617394 32.7360359,41.2169495 32.5581225,41.5371436 L29.8516066,46.4160319 L23.5117183,31.2242074 C30.8291456,29.8237979 36.37361,23.4203059 36.37361,15.7549335 C36.37361,7.06772872 29.2530035,0 20.4999267,0 C11.7473751,0 4.6262434,7.06772872 4.6262434,15.7549335 C4.6262434,19.2735505 5.7946946,22.5263165 7.76671039,25.1515957 L0.0599744555,43.6182101 C-0.0559646847,43.8956596 -0.00108069761,44.2148112 0.200992164,44.4388298 C0.40253982,44.6628484 0.716481478,44.7518564 1.00731409,44.6684521 L7.3657159,42.8398138 L10.5589661,48.595359 C10.6980142,48.8457021 10.9631118,49 11.2488236,49 C11.2631355,49 11.2781039,48.9994787 11.2924157,48.9989574 C11.5950654,48.9821463 11.8606882,48.7948777 11.9766273,48.5174282 L18.0837183,33.8845426 C18.2498145,33.4858963 18.0590336,33.0282154 17.6569887,32.8633617 C17.2548125,32.6978564 16.7942072,32.8872101 16.6275857,33.2863777 L11.1482468,46.4160319 L8.44173091,41.5371436 C8.26381751,41.2169495 7.88580077,41.0617394 7.53233739,41.1635186 L2.14280864,42.7136649 L8.907457,26.5052207 C11.8063294,29.5824468 15.9305065,31.5097367 20.4999267,31.5097367 C20.9718239,31.5097367 21.4384691,31.4878431 21.8995997,31.4475745 L29.0232261,48.5174282 C29.1391652,48.7948777 29.4053132,48.9821463 29.7074377,48.9989574 C29.7222747,48.9994787 29.7367179,49 29.751555,49 C30.0372668,49 30.3023644,48.8457021 30.4414125,48.595359 L33.6346627,42.8398138 L39.9930645,44.6684521 C40.2838971,44.7518564 40.5973136,44.6628484 40.7993864,44.4388298 C41.0014593,44.2148112 41.0558181,43.8956596 40.9398789,43.6182101" id="Fill-1"></path>
                    <g id="Group-7" transform="translate(8.000000, 3.000000)">
                        <path d="M16.1978479,13.3199485 C16.0282603,13.4931443 15.9491366,13.735799 15.9849613,13.9758763 L16.6005541,18.1071907 L12.8613789,16.2450773 C12.7527448,16.1908247 12.6349613,16.1641495 12.5166624,16.1641495 C12.3988789,16.1641495 12.2805799,16.1908247 12.1723325,16.2450773 L8.43315722,18.1071907 L9.0483634,13.9758763 C9.08457474,13.735799 9.00545103,13.4931443 8.83534794,13.3199485 L5.90918814,10.3394072 L10.0283892,9.64829897 C10.2674356,9.60809278 10.4742655,9.45809278 10.5861211,9.24314433 L12.5166624,5.53863402 L14.4470747,9.24314433 C14.559317,9.45809278 14.7657603,9.60809278 15.0048067,9.64829897 L19.1240077,10.3394072 L16.1978479,13.3199485 Z M21.450683,9.58335052 C21.3615077,9.30951031 21.1274871,9.10770619 20.8430799,9.05989691 L15.6406314,8.18695876 L13.2022294,3.50860825 C13.0693686,3.25280928 12.8050644,3.09275773 12.5166624,3.09275773 C12.2287758,3.09275773 11.9643428,3.25280928 11.8310954,3.50860825 L9.39320876,8.18695876 L4.19024485,9.05989691 C3.90583763,9.10770619 3.67168814,9.30951031 3.58251289,9.58335052 C3.49346649,9.85770619 3.56447165,10.1587371 3.76640464,10.3641495 L7.4620232,14.1284536 L6.68496134,19.3464948 C6.6426933,19.6314175 6.7620232,19.9168557 6.99488402,20.0859278 C7.22813144,20.2551289 7.53612113,20.2807732 7.79436856,20.1529381 L12.5166624,17.801134 L17.2388273,20.1529381 C17.3481057,20.2068041 17.4658892,20.2339948 17.5836727,20.2339948 C17.7442397,20.2339948 17.9037758,20.1841237 18.038183,20.0859278 C18.2713015,19.9168557 18.3911469,19.631933 18.3482345,19.3464948 L17.5710438,14.1289691 L21.2669201,10.3641495 C21.4687242,10.1587371 21.5397294,9.85770619 21.450683,9.58335052 L21.450683,9.58335052 Z" id="Fill-3"></path>
                        <path d="M24.229317,13.2660825 C23.8059923,13.209768 23.4173325,13.5077062 23.361018,13.9310309 C22.6441366,19.344433 17.9818943,23.4263918 12.5165593,23.4263918 C6.48395619,23.4263918 1.57648196,18.5189175 1.57648196,12.4864433 C1.57648196,6.45384021 6.48395619,1.54636598 12.5165593,1.54636598 C17.9818943,1.54636598 22.6441366,5.62832474 23.361018,11.0417268 C23.4173325,11.4650515 23.8065077,11.7635052 24.229317,11.7066753 C24.6526418,11.650232 24.9501933,11.261701 24.8942655,10.8382474 C24.0758376,4.65976804 18.7545747,-2.57731959e-05 12.5165593,-2.57731959e-05 C5.63189433,-2.57731959e-05 0.0300902062,5.60113402 0.0300902062,12.4864433 C0.0300902062,19.3716237 5.63189433,24.9727835 12.5165593,24.9727835 C18.7545747,24.9727835 24.0758376,20.3135052 24.8942655,14.1345103 C24.9501933,13.7110567 24.6526418,13.3225258 24.229317,13.2660825" id="Fill-5"></path>
                    </g>
                </g>
            </g>
        </g>
    </g>
</svg>