<?xml version="1.0" encoding="UTF-8"?>
<svg width="282px" height="38px" viewBox="0 0 282 38" version="1.1" xmlns="http://www.w3.org/2000/svg" xmlns:xlink="http://www.w3.org/1999/xlink">
    <!-- Generator: Sketch 41.2 (35397) - http://www.bohemiancoding.com/sketch -->
    <title>BIG Logo - Blue type</title>
    <desc>Created with Sketch.</desc>
    <defs>
        <polygon id="path-1" points="0 37.62 267.33342 37.62 267.33342 0.15276 0 0.15276"></polygon>
        <polygon id="path-3" points="0 37.62 267.33342 37.62 267.33342 0.15276 0 0.15276"></polygon>
    </defs>
    <g id="Symbols" stroke="none" stroke-width="1" fill="none" fill-rule="evenodd">
        <g id="Header---white---hybrid---Home" transform="translate(-32.000000, -56.000000)">
            <g id="Header---hybrid">
                <g id="Group-2" transform="translate(32.000000, 56.000000)">
                    <g id="BIG-Logo---Blue-type">
                        <g id="Flag" transform="translate(271.000000, 0.000000)">
                            <rect id="Rectangle" fill="#FFFFFF" x="0" y="0" width="10" height="29"></rect>
                            <polygon id="Fill-1" fill="#10054A" points="4.6062 0.0011 4.6062 6.2631 9.6372 0.0011"></polygon>
                            <polygon id="Fill-2" fill="#10054A" points="5.1939 12.1142 9.9999 12.1142 9.9999 6.1322"></polygon>
                            <polygon id="Fill-3" fill="#10054A" points="5.2605 16.9472 9.9995 22.8482 9.9995 16.9472"></polygon>
                            <polygon id="Fill-4" fill="#10054A" points="4.6062 29 9.6342 29 4.6062 22.74"></polygon>
                            <polygon id="Fill-5" fill="#B00F2A" points="4.6062 9.5015 4.6062 11.7515 10.0002 5.0155 10.0002 2.7655"></polygon>
                            <polygon id="Fill-6" fill="#B00F2A" points="4.6062 21.6245 10.0002 28.3605 10.0002 26.1105 4.6062 19.3745"></polygon>
                            <polygon id="Fill-7" fill="#B00F2A" points="0 0.0002 0 29.0002 3.079 29.0002 3.079 15.9992 10 15.9992 10 13.0622 3.079 13.0622 3.079 0.0002"></polygon>
                        </g>
                        <g id="Type">
                            <g id="Group-15" transform="translate(0.000000, 0.227088)">
                                <path d="M9.38296,15.509814 L3.97974,15.509814 L3.97974,20.767874 L9.38296,20.767874 C11.35896,20.767874 12.28844,19.722494 12.28844,18.124214 C12.28844,16.381534 11.35896,15.509814 9.38296,15.509814 Z M9.15116,8.044334 L3.97974,8.044334 L3.97974,11.907794 L9.35446,11.907794 C11.039,11.907794 11.64966,11.123094 11.64966,9.990694 C11.64966,8.711614 10.9231,8.044334 9.15116,8.044334 Z M9.23818,24.632094 L0,24.632094 L0,4.296014 L9.3252,4.296014 C13.27568,4.296014 15.77456,6.184234 15.77456,9.670734 C15.77456,11.413794 14.96136,12.808394 13.6249,13.621594 C15.25168,14.347394 16.47186,15.829774 16.47186,18.066454 C16.47186,22.337274 13.59526,24.632094 9.23818,24.632094 Z" id="Fill-1" fill="#1E1348"></path>
                                <path d="M25.690128,25.056592 C20.731888,25.056592 17.386368,21.711832 17.386368,15.726072 L17.386368,4.194592 L21.494168,4.194592 L21.494168,15.666792 C21.494168,18.953412 23.079148,21.036952 25.690128,21.036952 C28.302248,21.036952 29.915348,19.012312 29.915348,15.726072 L29.915348,4.194592 L34.023528,4.194592 L34.023528,15.666792 C34.023528,21.623672 30.913228,25.056592 25.690128,25.056592" id="Fill-3" fill="#1E1348"></path>
                                <path d="M42.971578,25.056592 C39.539038,25.056592 36.545778,23.618672 34.991198,21.329932 L37.954438,18.689312 C39.391978,20.362072 41.240298,21.036952 43.206798,21.036952 C45.642218,21.036952 46.786398,20.362072 46.786398,18.806732 C46.786398,17.486232 46.082258,16.899132 42.208918,16.019432 C38.423738,15.138972 35.783118,13.935892 35.783118,9.886612 C35.783118,6.160332 39.069358,3.871592 43.118258,3.871592 C46.316718,3.871592 48.663978,5.075052 50.600838,7.099312 L47.636838,9.974772 C46.316718,8.625012 44.849538,7.862352 42.971578,7.862352 C40.770998,7.862352 40.037978,8.801712 40.037978,9.710292 C40.037978,11.001912 40.918058,11.413072 44.175038,12.175732 C47.431638,12.938012 51.040878,14.053312 51.040878,18.513372 C51.040878,22.415972 48.576198,25.056592 42.971578,25.056592" id="Fill-5" fill="#1E1348"></path>
                                <mask id="mask-2" fill="white">
                                    <use xlink:href="#path-1"></use>
                                </mask>
                                <g id="Clip-8"></g>
                                <polygon id="Fill-7" fill="#1E1348" mask="url(#mask-2)" points="52.7421 24.73382 56.84952 24.73382 56.84952 4.19444 52.7421 4.19444"></polygon>
                                <path d="M72.01912,24.733744 L64.47802,13.525264 C63.97908,12.762224 63.3042,11.735084 63.04048,11.207264 C63.04048,11.970304 63.099,14.552404 63.099,15.696584 L63.099,24.733744 L59.0501,24.733744 L59.0501,4.194364 L62.98158,4.194364 L70.2582,15.050964 C70.75714,15.813624 71.43202,16.840764 71.69574,17.369344 C71.69574,16.605924 71.63722,14.023824 71.63722,12.880024 L71.63722,4.194364 L75.6865,4.194364 L75.6865,24.733744 L72.01912,24.733744 Z" id="Fill-9" fill="#1E1348" mask="url(#mask-2)"></path>
                                <polygon id="Fill-10" fill="#1E1348" mask="url(#mask-2)" points="78.033266 24.733744 78.033266 4.194364 92.293146 4.194364 92.293146 8.214004 82.141066 8.214004 82.141066 11.764724 88.038286 11.764724 88.038286 15.755104 82.141066 15.755104 82.141066 20.713724 92.733566 20.713724 92.733566 24.733744"></polygon>
                                <path d="M101.241842,25.056592 C97.808922,25.056592 94.815662,23.618672 93.260702,21.329932 L96.224322,18.689312 C97.661862,20.362072 99.510182,21.036952 101.476302,21.036952 C103.911722,21.036952 105.055902,20.362072 105.055902,18.806732 C105.055902,17.486232 104.352142,16.899132 100.478802,16.019432 C96.693622,15.138972 94.053382,13.935892 94.053382,9.886612 C94.053382,6.160332 97.339242,3.871592 101.388522,3.871592 C104.586602,3.871592 106.933862,5.075052 108.869962,7.099312 L105.906722,9.974772 C104.586602,8.625012 103.119422,7.862352 101.241842,7.862352 C99.040882,7.862352 98.307482,8.801712 98.307482,9.710292 C98.307482,11.001912 99.187942,11.413072 102.444542,12.175732 C105.701522,12.938012 109.310382,14.053312 109.310382,18.513372 C109.310382,22.415972 106.845702,25.056592 101.241842,25.056592" id="Fill-11" fill="#1E1348" mask="url(#mask-2)"></path>
                                <path d="M117.789664,25.056592 C114.356744,25.056592 111.363484,23.618672 109.808524,21.329932 L112.771764,18.689312 C114.209684,20.362072 116.058004,21.036952 118.024124,21.036952 C120.459544,21.036952 121.604104,20.362072 121.604104,18.806732 C121.604104,17.486232 120.899964,16.899132 117.026244,16.019432 C113.241064,15.138972 110.600824,13.935892 110.600824,9.886612 C110.600824,6.160332 113.887064,3.871592 117.936344,3.871592 C121.134424,3.871592 123.482064,5.075052 125.418544,7.099312 L122.454924,9.974772 C121.134424,8.625012 119.666864,7.862352 117.789664,7.862352 C115.588324,7.862352 114.854924,8.801712 114.854924,9.710292 C114.854924,11.001912 115.735384,11.413072 118.992744,12.175732 C122.249344,12.938012 125.858584,14.053312 125.858584,18.513372 C125.858584,22.415972 123.393904,25.056592 117.789664,25.056592" id="Fill-12" fill="#1E1348" mask="url(#mask-2)"></path>
                                <polygon id="Fill-13" fill="#1E1348" mask="url(#mask-2)" points="137.17164 24.74218 141.27982 24.74218 141.27982 4.20052 137.17164 4.20052"></polygon>
                                <path d="M151.13873,25.064762 C147.70543,25.064762 144.71217,23.626462 143.15721,21.337342 L146.12083,18.696722 C147.55837,20.369862 149.40745,21.044362 151.37357,21.044362 C153.80899,21.044362 154.95355,20.369862 154.95355,18.814142 C154.95355,17.493642 154.24941,16.906542 150.37569,16.026462 C146.59051,15.146002 143.94913,13.942922 143.94913,9.892882 C143.94913,6.166602 147.23575,3.877482 151.28579,3.877482 C154.48425,3.877482 156.83151,5.080562 158.76837,7.105202 L155.80437,9.981422 C154.48425,8.632042 153.01669,7.868242 151.13873,7.868242 C148.93815,7.868242 148.20399,8.807982 148.20399,9.716942 C148.20399,11.008562 149.08483,11.419722 152.34181,12.182002 C155.59917,12.944662 159.20841,14.060342 159.20841,18.520782 C159.20841,22.423382 156.74373,25.064762 151.13873,25.064762" id="Fill-14" fill="#1E1348" mask="url(#mask-2)"></path>
                            </g>
                            <polygon id="Fill-16" fill="#E41F13" points="168.80702 28.977128 267.33304 28.977128 267.33304 0.379848 168.80702 0.379848"></polygon>
                            <g id="Group-53" transform="translate(0.000000, 0.227088)">
                                <path d="M185.930998,17.298854 L182.613978,17.298854 L182.613978,13.452874 L190.041458,13.452874 L190.041458,16.152774 L190.041458,16.770274 C190.041458,22.054174 186.547358,25.050094 181.792038,25.050094 C176.419598,25.050094 172.807698,20.939254 172.807698,14.451134 C172.807698,8.198994 176.565898,3.853314 181.939098,3.853314 C186.137338,3.853314 188.367558,5.819434 189.718838,8.990914 L185.813578,10.605914 C185.050918,9.078314 184.111558,7.933374 181.879818,7.933374 C178.798018,7.933374 177.035958,10.634794 177.035958,14.451134 C177.035958,18.239354 178.825758,21.027034 181.908698,21.027034 C185.299058,21.027034 185.799518,18.916894 185.930998,17.916354 C185.954938,17.657194 185.970138,17.519254 185.968998,17.298854 L185.930998,17.298854 Z" id="Fill-17" fill="#FFFFFF"></path>
                                <polygon id="Fill-19" fill="#FFFFFF" points="213.219748 24.728158 213.219748 4.176238 227.488368 4.176238 227.488368 8.198918 217.328688 8.198918 217.328688 12.454538 224.948448 12.454538 224.948448 16.447578 217.328688 16.447578 217.328688 20.704718 227.488368 20.704718 227.488368 24.728158"></polygon>
                                <path d="M244.65806,24.728158 L249.1793,24.728158 L241.3703,4.176238 L237.37802,4.176238 L229.50936,24.728158 L233.91204,24.728158 C233.91204,24.728158 234.5835,22.822838 235.45256,20.352078 L243.11792,20.352078 C243.98622,22.822838 244.65806,24.728158 244.65806,24.728158 L244.65806,24.728158 Z M236.82284,16.447578 C238.0377,12.981598 239.191,9.666098 239.286,9.313838 C239.38024,9.666098 240.53354,12.981598 241.74726,16.447578 L236.82284,16.447578 Z" id="Fill-21" fill="#FFFFFF"></path>
                                <polygon id="Fill-23" fill="#FFFFFF" points="257.429632 8.227114 257.429632 24.727474 253.320312 24.727474 253.320312 8.227114 247.418912 8.227114 247.418912 4.176314 263.332932 4.176314 263.332932 8.227114"></polygon>
                                <path d="M202.94565,13.452874 L197.57283,13.452874 L197.57283,8.167834 L202.94565,8.167834 C204.76547,8.167834 205.88115,8.931634 205.88115,10.780334 C205.88115,12.572794 204.85439,13.452874 202.94565,13.452874 M210.11017,10.693314 C210.11017,6.318374 206.90905,4.176314 203.03381,4.176314 L193.46313,4.176314 L193.46313,24.728234 L197.57283,24.728234 L197.57283,17.326974 L201.71369,17.326974 L205.38297,24.728234 L210.11017,24.728234 L206.17413,16.742154 C208.78891,15.715014 210.11017,13.775874 210.11017,10.693314" id="Fill-25" fill="#FFFFFF"></path>
                                <path d="M171.005244,35.406006 L169.739084,35.406006 L169.739084,36.638726 L171.005244,36.638726 C171.467704,36.638726 171.685824,36.394006 171.685824,36.019706 C171.685824,35.610826 171.467704,35.406006 171.005244,35.406006 M170.950524,33.654586 L169.739084,33.654586 L169.739084,34.562026 L170.998404,34.562026 C171.393224,34.562026 171.535724,34.378106 171.535724,34.112486 C171.535724,33.812666 171.366624,33.654586 170.950524,33.654586 M170.971044,37.546546 L168.806184,37.546546 L168.806184,32.776406 L170.991184,32.776406 C171.917244,32.776406 172.502444,33.219486 172.502444,34.036486 C172.502444,34.445746 172.312064,34.772926 171.999324,34.964446 C172.380464,35.133546 172.666224,35.480106 172.666224,36.005646 C172.666224,37.007706 171.992484,37.546546 170.971044,37.546546" id="Fill-27" fill="#1E1348"></path>
                                <path d="M175.49882,33.702694 L174.25318,33.702694 L174.25318,34.929714 L175.49882,34.929714 C175.94152,34.929714 176.17978,34.725274 176.17978,34.309934 C176.17978,33.880154 175.92138,33.702694 175.49882,33.702694 L175.49882,33.702694 Z M176.06464,37.546394 L175.21306,35.829174 L174.25318,35.829174 L174.25318,37.546394 L173.30014,37.546394 L173.30014,32.776254 L175.51934,32.776254 C176.4188,32.776254 177.16018,33.273674 177.16018,34.289034 C177.16018,35.005334 176.85352,35.454114 176.24742,35.693134 L177.16018,37.546394 L176.06464,37.546394 Z" id="Fill-29" fill="#1E1348"></path>
                                <mask id="mask-4" fill="white">
                                    <use xlink:href="#path-3"></use>
                                </mask>
                                <g id="Clip-32"></g>
                                <polygon id="Fill-31" fill="#1E1348" mask="url(#mask-4)" points="177.88902 37.54666 178.84206 37.54666 178.84206 32.77652 177.88902 32.77652"></polygon>
                                <polygon id="Fill-33" fill="#1E1348" mask="url(#mask-4)" points="181.674922 33.71607 181.674922 37.54647 180.721122 37.54647 180.721122 33.71607 179.352742 33.71607 179.352742 32.77633 183.042922 32.77633 183.042922 33.71607"></polygon>
                                <path d="M185.003646,34.712088 C184.908646,34.432408 184.813646,34.146648 184.766146,33.968428 C184.717886,34.146648 184.622506,34.432408 184.527126,34.712088 L184.221226,35.576588 L185.310686,35.576588 L185.003646,34.712088 Z M186.011406,37.546508 L185.637486,36.482128 L183.894046,36.482128 L183.519366,37.546508 L182.498306,37.546508 L184.322686,32.776368 L185.249126,32.776368 L187.060206,37.546508 L186.011406,37.546508 Z" id="Fill-34" fill="#1E1348" mask="url(#mask-4)"></path>
                                <polygon id="Fill-35" fill="#1E1348" mask="url(#mask-4)" points="187.67326 37.54666 188.62706 37.54666 188.62706 32.77652 187.67326 32.77652"></polygon>
                                <path d="M192.452216,37.54647 L190.702696,34.94271 C190.587556,34.76639 190.430616,34.52737 190.369056,34.40387 C190.369056,34.58209 190.382736,35.18021 190.382736,35.44773 L190.382736,37.54647 L189.443376,37.54647 L189.443376,32.77633 L190.354996,32.77633 L192.043716,35.29687 C192.159616,35.47433 192.316556,35.71335 192.378116,35.83647 C192.378116,35.65749 192.364056,35.05861 192.364056,34.79299 L192.364056,32.77633 L193.303416,32.77633 L193.303416,37.54647 L192.452216,37.54647 Z" id="Fill-36" fill="#1E1348" mask="url(#mask-4)"></path>
                                <path d="M197.239722,35.542578 C196.865042,35.740178 196.714942,35.984898 196.714942,36.271418 C196.714942,36.578838 196.960042,36.775298 197.436562,36.775298 C197.730302,36.775298 197.974642,36.706898 198.171482,36.564398 L197.239722,35.542578 Z M199.077402,37.546318 L198.716402,37.156818 C198.342102,37.464238 197.885722,37.620038 197.327882,37.620038 C196.354702,37.620038 195.761522,37.211158 195.761522,36.353118 C195.761522,35.685078 196.128602,35.284178 196.735082,34.984358 L196.612722,34.847938 C196.360782,34.567498 196.197762,34.262358 196.197762,33.880078 C196.197762,33.103738 196.810322,32.701318 197.613642,32.701318 C198.199222,32.701318 198.580362,32.878018 199.036742,33.199498 L198.580362,33.887678 C198.267242,33.648658 197.927142,33.546058 197.586282,33.546058 C197.307362,33.546058 197.137122,33.661958 197.137122,33.859938 C197.137122,34.063998 197.239722,34.200798 197.389062,34.378258 L198.703102,35.876598 C198.812542,35.657718 198.920842,35.399318 199.036742,35.086198 L199.805102,35.330918 C199.655762,35.794898 199.479442,36.197318 199.267782,36.524498 L200.167242,37.546318 L199.077402,37.546318 Z" id="Fill-37" fill="#1E1348" mask="url(#mask-4)"></path>
                                <path d="M205.163672,37.54647 L203.413772,34.94271 C203.298632,34.76639 203.142072,34.52737 203.080512,34.40387 C203.080512,34.58209 203.094572,35.18021 203.094572,35.44773 L203.094572,37.54647 L202.154832,37.54647 L202.154832,32.77633 L203.066832,32.77633 L204.755552,35.29687 C204.871072,35.47433 205.028772,35.71335 205.089572,35.83647 C205.089572,35.65749 205.075512,35.05861 205.075512,34.79299 L205.075512,32.77633 L206.014872,32.77633 L206.014872,37.54647 L205.163672,37.54647 Z" id="Fill-38" fill="#1E1348" mask="url(#mask-4)"></path>
                                <path d="M208.718002,33.648506 C207.948502,33.648506 207.628542,34.309706 207.628542,35.160906 C207.628542,36.012486 207.948502,36.672926 208.718002,36.672926 C209.487502,36.672926 209.807462,36.012486 209.807462,35.160906 C209.807462,34.309706 209.487502,33.648506 208.718002,33.648506 M208.718002,37.619886 C207.417642,37.619886 206.648902,36.612126 206.648902,35.160906 C206.648902,33.709306 207.417642,32.701546 208.718002,32.701546 C210.019122,32.701546 210.787862,33.709306 210.787862,35.160906 C210.787862,36.612126 210.019122,37.619886 208.718002,37.619886" id="Fill-39" fill="#1E1348" mask="url(#mask-4)"></path>
                                <path d="M213.620914,33.702694 L212.374894,33.702694 L212.374894,34.929714 L213.620914,34.929714 C214.063234,34.929714 214.301494,34.725274 214.301494,34.309934 C214.301494,33.880154 214.042334,33.702694 213.620914,33.702694 L213.620914,33.702694 Z M214.186354,37.546394 L213.334394,35.829174 L212.374894,35.829174 L212.374894,37.546394 L211.421854,37.546394 L211.421854,32.776254 L213.641814,32.776254 C214.539754,32.776254 215.281134,33.273674 215.281134,34.289034 C215.281134,35.005334 214.975234,35.454114 214.369894,35.693134 L215.281134,37.546394 L214.186354,37.546394 Z" id="Fill-40" fill="#1E1348" mask="url(#mask-4)"></path>
                                <polygon id="Fill-41" fill="#1E1348" mask="url(#mask-4)" points="217.794986 33.71607 217.794986 37.54647 216.841186 37.54647 216.841186 33.71607 215.472046 33.71607 215.472046 32.77633 219.163746 32.77633 219.163746 33.71607"></polygon>
                                <polygon id="Fill-42" fill="#1E1348" mask="url(#mask-4)" points="222.512306 37.54647 222.512306 35.54273 220.558726 35.54273 220.558726 37.54647 219.606066 37.54647 219.606066 32.77633 220.558726 32.77633 220.558726 34.60299 222.512306 34.60299 222.512306 32.77633 223.466106 32.77633 223.466106 37.54647"></polygon>
                                <polygon id="Fill-43" fill="#1E1348" mask="url(#mask-4)" points="224.351468 37.54647 224.351468 32.77633 227.660128 32.77633 227.660128 33.70923 225.304508 33.70923 225.304508 34.53383 226.672888 34.53383 226.672888 35.46027 225.304508 35.46027 225.304508 36.61205 227.762728 36.61205 227.762728 37.54647"></polygon>
                                <path d="M230.634806,33.702694 L229.389546,33.702694 L229.389546,34.929714 L230.634806,34.929714 C231.077886,34.929714 231.316906,34.725274 231.316906,34.309934 C231.316906,33.880154 231.058506,33.702694 230.634806,33.702694 L230.634806,33.702694 Z M231.200246,37.546394 L230.349806,35.829174 L229.389546,35.829174 L229.389546,37.546394 L228.436506,37.546394 L228.436506,32.776254 L230.655706,32.776254 C231.555166,32.776254 232.295786,33.273674 232.295786,34.289034 C232.295786,35.005334 231.990646,35.454114 231.384546,35.693134 L232.295786,37.546394 L231.200246,37.546394 Z" id="Fill-44" fill="#1E1348" mask="url(#mask-4)"></path>
                                <path d="M235.967422,37.54647 L234.216762,34.94271 C234.100862,34.76639 233.944302,34.52737 233.883502,34.40387 C233.883502,34.58209 233.896802,35.18021 233.896802,35.44773 L233.896802,37.54647 L232.957822,37.54647 L232.957822,32.77633 L233.869822,32.77633 L235.557782,35.29687 C235.673682,35.47433 235.830242,35.71335 235.892562,35.83647 C235.892562,35.65749 235.878502,35.05861 235.878502,34.79299 L235.878502,32.77633 L236.817862,32.77633 L236.817862,37.54647 L235.967422,37.54647 Z" id="Fill-45" fill="#1E1348" mask="url(#mask-4)"></path>
                                <polygon id="Fill-46" fill="#1E1348" mask="url(#mask-4)" points="239.67778 37.54666 240.63158 37.54666 240.63158 32.77652 239.67778 32.77652"></polygon>
                                <path d="M243.783414,33.702694 L242.536634,33.702694 L242.536634,34.929714 L243.783414,34.929714 C244.225734,34.929714 244.463234,34.725274 244.463234,34.309934 C244.463234,33.880154 244.205594,33.702694 243.783414,33.702694 L243.783414,33.702694 Z M244.348854,37.546394 L243.496134,35.829174 L242.536634,35.829174 L242.536634,37.546394 L241.584354,37.546394 L241.584354,32.776254 L243.802794,32.776254 C244.701494,32.776254 245.443634,33.273674 245.443634,34.289034 C245.443634,35.005334 245.137734,35.454114 244.532394,35.693134 L245.443634,37.546394 L244.348854,37.546394 Z" id="Fill-47" fill="#1E1348" mask="url(#mask-4)"></path>
                                <polygon id="Fill-48" fill="#1E1348" mask="url(#mask-4)" points="246.24228 37.54647 246.24228 32.77633 249.55018 32.77633 249.55018 33.70923 247.19456 33.70923 247.19456 34.53383 248.56218 34.53383 248.56218 35.46027 247.19456 35.46027 247.19456 36.61205 249.65278 36.61205 249.65278 37.54647"></polygon>
                                <polygon id="Fill-49" fill="#1E1348" mask="url(#mask-4)" points="250.32652 37.54647 250.32652 32.77633 251.2788 32.77633 251.2788 36.60521 253.66938 36.60521 253.66938 37.54647"></polygon>
                                <path d="M256.373118,34.712088 C256.278118,34.432408 256.181598,34.146648 256.134858,33.968428 C256.085838,34.146648 255.990838,34.432408 255.895838,34.712088 L255.589938,35.576588 L256.679018,35.576588 L256.373118,34.712088 Z M257.379358,37.546508 L257.004678,36.482128 L255.262758,36.482128 L254.888838,37.546508 L253.866638,37.546508 L255.691778,32.776368 L256.618218,32.776368 L258.428918,37.546508 L257.379358,37.546508 Z" id="Fill-50" fill="#1E1348" mask="url(#mask-4)"></path>
                                <path d="M261.846752,37.54647 L260.097232,34.94271 C259.980952,34.76639 259.825912,34.52737 259.762832,34.40387 C259.762832,34.58209 259.777652,35.18021 259.777652,35.44773 L259.777652,37.54647 L258.837912,37.54647 L258.837912,32.77633 L259.748772,32.77633 L261.438632,35.29687 C261.554152,35.47433 261.711852,35.71335 261.773412,35.83647 C261.773412,35.65749 261.758592,35.05861 261.758592,34.79299 L261.758592,32.77633 L262.697192,32.77633 L262.697192,37.54647 L261.846752,37.54647 Z" id="Fill-51" fill="#1E1348" mask="url(#mask-4)"></path>
                                <path d="M264.903092,33.702694 L264.399972,33.702694 L264.399972,36.618814 L264.869652,36.618814 C265.870192,36.618814 266.327332,36.032474 266.327332,35.161134 C266.327332,34.186434 265.911612,33.702694 264.903092,33.702694 M264.869652,37.546394 L263.446932,37.546394 L263.446932,32.776254 L264.938052,32.776254 C266.299972,32.776254 267.306972,33.416934 267.306972,35.161134 C267.306972,36.836174 266.095912,37.546394 264.869652,37.546394" id="Fill-52" fill="#1E1348" mask="url(#mask-4)"></path>
                            </g>
                        </g>
                    </g>
                </g>
            </g>
        </g>
    </g>
</svg>