<?xml version="1.0" encoding="UTF-8"?>
<svg width="41px" height="26px" viewBox="0 0 41 26" version="1.1" xmlns="http://www.w3.org/2000/svg" xmlns:xlink="http://www.w3.org/1999/xlink">
    <!-- Generator: Sketch 46.2 (44496) - http://www.bohemiancoding.com/sketch -->
    <title>tradition</title>
    <desc>Created with Sketch.</desc>
    <defs>
        <polygon id="path-1" points="4.00390625e-05 25.9668367 41 25.9668367 41 0.0120851945 4.00390625e-05 0.0120851945"></polygon>
    </defs>
    <g id="Contact-form-&amp;-Sign-up" stroke="none" stroke-width="1" fill="none" fill-rule="evenodd">
        <g id="FAS-1200-submit-opp---Food-and-drink-with-icons---final" transform="translate(-63.000000, -741.000000)">
            <g id="Group-5" transform="translate(60.000000, 591.000000)">
                <g id="tradition" transform="translate(3.000000, 150.000000)">
                    <g id="Group-3">
                        <mask id="mask-2" fill="white">
                            <use xlink:href="#path-1"></use>
                        </mask>
                        <g id="Clip-2"></g>
                        <path d="M37.9520264,4.56259369 C37.1720654,4.56259369 36.5376064,3.91546419 36.5376064,3.1202094 C36.5376064,2.32495461 37.1721455,1.67782511 37.9520264,1.67782511 C38.7319072,1.67782511 39.3665264,2.32487295 39.3665264,3.1202094 C39.3665264,3.91554584 38.7319072,4.56259369 37.9520264,4.56259369 L37.9520264,4.56259369 Z M34.8306611,24.3012275 L6.16933887,24.3012275 L6.00173535,22.9358455 L28.6198018,22.9358455 C29.0708018,22.9358455 29.4365186,22.5630825 29.4365186,22.1030286 C29.4365186,21.6430563 29.0708018,21.2702117 28.6198018,21.2702117 L5.7972959,21.2702117 L4.14840723,7.83515003 L12.6563076,17.0231641 C12.826874,17.2074633 13.0698311,17.3025117 13.3181533,17.2813626 C13.5657549,17.2602952 13.7905342,17.1253983 13.9288291,16.9148873 L20.50004,6.90875455 L27.0711709,16.9149689 C27.2093857,17.12548 27.434085,17.2602952 27.6818467,17.2814443 C27.9284873,17.3027567 28.1730459,17.207545 28.3436924,17.0232457 L36.8515928,7.83515003 L34.8306611,24.3012275 Z M1.63347363,3.1202094 C1.63347363,2.32487295 2.26809277,1.67782511 3.04797363,1.67782511 C3.82785449,1.67782511 4.46239355,2.32487295 4.46239355,3.1202094 C4.46239355,3.91554584 3.82785449,4.56259369 3.04797363,4.56259369 C2.26809277,4.56259369 1.63347363,3.91554584 1.63347363,3.1202094 L1.63347363,3.1202094 Z M20.50004,1.67782511 C21.280001,1.67782511 21.91454,2.32487295 21.91454,3.1202094 C21.91454,3.91554584 21.2799209,4.56259369 20.50004,4.56259369 C19.7200791,4.56259369 19.08546,3.91546419 19.08546,3.1202094 C19.08546,2.32495461 19.719999,1.67782511 20.50004,1.67782511 L20.50004,1.67782511 Z M41.00004,3.1202094 C41.00004,1.40639817 39.6327061,0.0121096915 37.9520264,0.0121096915 C36.2715068,0.0121096915 34.9040928,1.40639817 34.9040928,3.1202094 C34.9040928,4.28226617 35.5331865,5.29676925 36.4619326,5.82998763 L27.8588193,15.1206442 L21.818126,5.92225972 C22.8406436,5.4200709 23.5480537,4.35281758 23.5480537,3.12012774 C23.5480537,1.40631652 22.1807998,0.0120280348 20.50004,0.0120280348 C18.8194404,0.0120280348 17.4521064,1.40631652 17.4521064,3.12012774 C17.4521064,4.35281758 18.1594365,5.4200709 19.1820342,5.92225972 L13.1411807,15.1206442 L4.53814746,5.82998763 C5.46689355,5.29685091 6.0959873,4.28234783 6.0959873,3.1202094 C6.0959873,1.40639817 4.72865332,0.0121096915 3.04805371,0.0121096915 C1.36729395,0.0121913482 4.00390625e-05,1.40639817 4.00390625e-05,3.1202094 C4.00390625e-05,4.56839131 0.976432617,5.78826104 2.29315723,6.13162755 L4.63816504,25.2374218 C4.68933496,25.6541977 5.03671387,25.9668612 5.44863574,25.9668612 L35.5515244,25.9668612 C35.9634463,25.9668612 36.3108252,25.6541977 36.3620752,25.2374218 L38.7069229,6.13162755 C40.0235674,5.78826104 41.00004,4.56839131 41.00004,3.1202094 L41.00004,3.1202094 Z" id="Fill-1" fill="#00529D" mask="url(#mask-2)"></path>
                    </g>
                    <path d="M30.7629414,23 L31.2370586,23 C31.6583633,23 32,22.5524071 32,22 C32,21.447691 31.6583633,21 31.2370586,21 L30.7629414,21 C30.3416367,21 30,21.447691 30,22 C30,22.5524071 30.3415619,23 30.7629414,23" id="Fill-4" fill="#00529D"></path>
                </g>
            </g>
        </g>
    </g>
</svg>